<svg width="59" height="55" viewBox="0 0 59 55" fill="none" xmlns="http://www.w3.org/2000/svg">
<path d="M21.6544 6.56453C21.0438 5.86344 20.3276 4.67994 19.4004 4.36332C19.1139 4.26532 18.835 4.26528 18.5712 4.31805C17.8475 4.23512 16.9504 4.59702 16.4076 4.83826C15.0733 5.44134 13.7841 6.54196 12.7514 7.55967C12.6081 7.7029 12.5478 7.86119 12.5403 8.01197C12.1709 8.53967 12.4197 9.33122 12.9398 9.71569C16.3849 12.3014 19.815 14.8947 23.0717 17.7066C24.4361 18.8826 25.8006 20.0359 27.1199 21.2572C27.0596 21.227 26.9993 21.1969 26.9465 21.1743C25.9589 20.443 24.8583 19.8325 23.8557 19.1465C22.3103 18.0835 20.7347 17.0657 19.2195 15.9651C17.6891 14.8494 16.1588 13.7338 14.6737 12.5502C13.8746 11.917 13.0831 11.2762 12.284 10.6429C11.8166 10.2735 11.304 9.85893 10.6632 9.9117C10.5727 9.91924 10.4823 9.94183 10.3993 9.97952C10.1581 9.90414 9.87164 9.92672 9.60779 10.0398C8.44685 10.5373 7.45174 12.3994 6.7205 13.3794C5.61987 14.857 4.42125 16.3571 3.47892 17.9478C3.04923 18.6715 2.87584 19.4028 3.33569 19.9983C3.33569 20.0209 3.3357 20.0435 3.34324 20.0661C3.35077 20.1038 3.35079 20.134 3.35833 20.1717C3.41864 20.5938 3.90107 20.8577 4.3157 20.8275C6.26818 21.3628 8.5147 21.3024 10.5124 21.5286C12.7288 21.7698 14.9451 22.0488 17.169 22.2674C19.3778 22.4785 21.5866 22.7424 23.8029 22.9233C24.4136 22.9685 25.0996 23.0891 25.778 23.172C26.1926 23.3002 26.6148 23.4359 27.0294 23.564C26.3962 23.5037 25.7554 23.4434 25.1222 23.3907C22.5968 23.1796 20.0487 23.1193 17.5082 23.0816C14.9752 23.0439 12.4348 23.0589 9.89426 23.0514C7.35376 23.0438 4.63989 22.7876 2.13708 23.2851C1.60938 23.3907 1.10426 23.9561 1.0138 24.5215C0.0337836 26.1799 0.23733 30.1226 0.878109 30.982C0.998726 31.1478 1.15706 31.2458 1.3229 31.2835C1.63952 31.5775 2.09939 31.7283 2.60447 31.6303C3.65233 31.4343 4.8585 31.5625 5.94405 31.4117C7.2633 31.2308 8.575 30.9895 9.88671 30.7558C12.5403 30.2808 15.1863 29.8135 17.8399 29.3386C18.3525 29.2482 18.8727 29.1576 19.3853 29.0671C17.8249 29.6627 16.2644 30.2658 14.719 30.9217C13.1283 31.5926 11.5829 32.3238 10.0827 33.1229C7.74576 34.2009 5.43897 35.3393 3.16986 36.5003C2.82309 36.6736 2.63463 37.1636 2.75525 37.5255C2.85325 37.8346 2.94367 38.1361 3.04167 38.4452C3.10952 39.199 3.68248 39.9303 4.57203 39.576C6.61498 38.7618 8.51469 37.3973 10.4521 36.3419C12.3895 35.2865 14.3043 34.1934 16.2568 33.1606C18.2018 32.1278 20.1995 31.1931 22.2048 30.2734C22.8983 29.9568 23.5919 29.6401 24.2779 29.3235C22.6797 30.2734 21.0966 31.2458 19.5135 32.2334C15.2693 34.8719 11.0477 37.5406 6.84869 40.2469C6.72053 40.3298 6.61496 40.4428 6.53204 40.5635C6.32096 40.7444 6.12499 40.9404 5.95914 41.159C5.7933 41.3701 5.86866 41.7093 6.03451 41.8978C6.03451 42.531 6.59235 43.1644 7.00697 43.6619C7.47436 44.2273 8.07746 45.0113 8.76347 45.5164C9.26855 46.1496 10.2637 46.4587 11.0778 45.7877C14.93 42.5838 18.5711 39.1312 22.3103 35.784C23.8707 34.3819 25.5217 33.0702 27.0822 31.668C26.8711 31.9997 26.6601 32.3314 26.449 32.6631C25.6423 33.6808 24.798 34.6683 23.8707 35.5729C20.1015 39.2744 16.3096 42.9004 12.7363 46.7979C12.5478 47.0014 12.4574 47.2879 12.4498 47.5819C12.1106 48.3358 13.1811 48.9388 13.7465 49.2479C14.2365 49.5118 14.8697 49.8586 15.4426 49.7455C15.5406 49.7606 15.6386 49.7304 15.714 49.6475C15.7894 49.6098 15.8648 49.5571 15.9327 49.4967C16.0684 49.3686 16.1588 49.2329 16.2191 49.0896C17.2067 48.4187 17.9153 46.8206 18.5712 45.9159C20.4633 43.3 22.6118 40.8952 24.602 38.3623C25.1373 37.6838 25.6348 36.9751 26.1097 36.259C26.5696 35.7463 27.0068 35.2187 27.429 34.6759C24.3155 39.7795 21.1418 44.8153 17.3424 49.4967C16.9127 50.0244 16.9579 50.7179 17.5534 51.1099C18.6917 51.8713 19.9055 52.4895 21.187 52.9343C22.0615 53.3715 22.9737 53.7485 23.9085 54.0274C24.9714 54.3516 26.072 54.5174 27.1802 54.5853C28.4014 54.6607 29.4267 54.4043 30.6253 54.2309C30.8515 54.2007 30.9646 54.0727 31.0023 53.9219C31.1153 53.8163 31.1982 53.673 31.2209 53.4846C31.9069 48.6147 32.5477 43.7373 33.0829 38.8447C33.1658 38.1135 33.2261 37.3671 33.294 36.6208C33.392 38.8824 33.4221 41.1515 33.4071 43.4357C33.392 45.652 33.3241 47.8834 33.4523 50.0998C33.5051 51.0873 33.2487 53.266 34.4775 53.6881C34.5604 53.7183 34.6509 53.6956 34.7339 53.658C34.9223 53.7635 35.1635 53.8087 35.4198 53.7711C37.4176 53.477 40.2069 52.8288 41.5261 51.1627C41.6015 51.1778 41.6844 51.1401 41.7296 51.0723C42.1593 50.3712 41.8955 49.8133 41.6166 49.0519C41.2246 47.9814 40.8401 46.9034 40.4481 45.8329C39.7018 43.7673 38.9479 41.7018 38.2016 39.6362C38.0131 39.1085 37.8246 38.5809 37.6286 38.0532C38.2845 39.2593 38.9403 40.4655 39.5585 41.6942C40.2219 43.0135 40.8401 44.3554 41.4507 45.7048C42.1669 47.2728 42.5438 48.8936 43.1318 50.4993C43.1846 50.6426 43.373 50.6501 43.4333 50.5144C43.5766 50.6275 43.765 50.6803 43.9987 50.6124C45.71 50.1677 47.2931 49.0745 48.748 47.9513C49.6602 47.4688 50.5196 46.9713 50.9116 45.9687C51.0021 45.8631 51.0398 45.7048 50.9418 45.5615C49.8864 43.9257 48.2279 42.614 46.8634 41.242C45.3708 39.7418 43.8857 38.2191 42.4232 36.6887C41.4507 35.671 40.4933 34.6533 39.5359 33.628C40.6215 34.5025 41.7447 35.3242 42.8227 36.1987C43.2072 36.5078 43.5841 36.8168 43.9686 37.1259C44.5717 37.6913 45.1747 38.2492 45.7778 38.8146C46.8634 39.8247 47.9489 40.8349 49.027 41.8451C49.9768 42.7422 50.9795 43.9408 52.2158 44.4007C52.3666 44.4534 52.5324 44.3403 52.5852 44.1971C52.7133 44.1443 52.8264 44.0614 52.9018 43.9558C52.9546 43.8804 53.0073 43.8051 53.0601 43.7297C54.4774 42.6894 56.7616 38.7467 56.3243 37.1787C56.3545 37.1636 56.3695 37.141 56.3846 37.1108C56.4751 36.8998 56.4675 36.8772 56.3545 36.6812C56.3318 36.651 56.3017 36.6208 56.2716 36.6057C56.2866 36.5756 56.2942 36.5379 56.2791 36.5153C55.8042 35.8066 55.0578 35.6107 54.2889 35.2715C53.3843 34.8719 52.4797 34.4648 51.5599 34.0803C49.5698 33.2511 47.5796 32.4218 45.5819 31.6076C43.5841 30.7935 41.5864 29.9793 39.5812 29.1802C39.4228 29.1199 39.2645 29.0521 39.0987 28.9767C41.2849 29.4968 43.4861 29.9945 45.6346 30.6503C47.3459 31.1705 49.0647 31.6982 50.7759 32.2334C52.555 32.7913 54.4246 33.2134 56.166 33.8467C56.5279 33.9824 56.9123 33.726 57.048 33.3943C57.2515 33.1078 57.3571 32.7309 57.4174 32.3314C57.9979 31.08 58.1185 29.3989 58.2768 28.1399C58.503 26.3231 58.5557 24.2576 57.8697 22.5237C57.4702 21.5135 56.8143 21.212 55.9323 21.3176C52.5701 21.1969 49.1476 22.2222 45.9437 23.0967C44.5038 23.4887 43.064 23.8882 41.6166 24.2501C42.589 23.9033 43.554 23.5414 44.5189 23.1871C48.1826 21.8528 51.9218 20.4732 55.8569 20.3375C56.2489 20.3224 56.6635 19.9907 56.6258 19.5686C56.5203 18.1061 56.2942 16.6964 55.9926 15.2641C55.97 15.1585 55.9172 15.0681 55.8569 15.0002C55.8644 14.7439 55.5855 14.4951 55.3066 14.5478C53.3616 14.9625 51.4243 16.0933 49.6301 16.9452C47.6625 17.8875 45.6874 18.8223 43.7274 19.7797C41.9709 20.6315 40.2294 21.5136 38.473 22.3503C39.0082 21.883 39.5434 21.4156 40.0862 20.9482C41.3829 19.9983 42.6569 19.0108 43.9309 18.0308C45.5894 16.7492 47.2479 15.4601 48.9667 14.2615C49.8185 13.6735 50.693 13.1156 51.5524 12.5427C52.2233 12.0979 53.1581 11.7737 53.4898 11.0123C53.4974 10.9897 53.5049 10.9746 53.5049 10.952C53.5124 10.9445 53.5275 10.9445 53.535 10.9369C53.8064 10.8163 53.8366 10.4469 53.7235 10.2207C53.2637 9.31609 52.457 8.37379 51.7032 7.70286C51.2886 7.32593 50.8136 7.12243 50.3613 6.80581C49.8939 6.48165 49.5773 6.03682 49.0496 5.80312C48.8913 5.72774 48.733 5.71268 48.5822 5.72776C48.6953 5.41114 48.243 5.17749 48.0244 5.40365C45.5894 7.98938 43.7801 11.1857 41.6316 14.0126C40.5084 15.4902 39.3098 16.915 38.1187 18.3398C37.8096 18.7092 37.4553 19.0861 37.0934 19.4706C37.1236 19.4253 37.1613 19.3801 37.1914 19.3349C38.3901 17.7217 39.5585 16.1009 40.7044 14.4499C41.8503 12.8065 42.9886 11.1556 44.0138 9.42922C44.4435 8.71306 45.0014 7.92152 45.4386 7.08474C45.8683 6.45904 46.2829 5.82577 46.6749 5.17746C46.7126 5.10961 46.7352 5.0493 46.7352 4.98899C46.8936 4.77791 46.9011 4.44621 46.6071 4.32559C46.4488 4.25775 46.2905 4.18233 46.1246 4.10695C46.0191 3.96371 45.8457 3.86576 45.6196 3.8733C43.8028 3.0139 42.0538 2.03391 40.0938 1.4459C38.5107 0.97097 36.4602 0.511081 34.6434 0.654314C34.4549 0.631698 34.274 0.616569 34.0855 0.601492C33.7162 0.578876 33.0829 0.593961 32.6532 0.797502C31.9747 0.820118 31.5375 1.6268 31.643 2.26758C32.2913 6.18764 31.937 10.1604 32.1934 14.1106C32.2687 15.2942 32.3893 16.4703 32.5401 17.6463C32.4572 17.3749 32.3667 17.111 32.2838 16.8471C31.9672 15.4374 31.6355 14.0353 31.2887 12.6407C31.1907 11.8642 31.0927 11.0877 30.9721 10.3187C30.7309 8.72808 30.4142 7.15259 30.0901 5.58457C29.879 4.56686 29.8639 3.08177 29.1176 2.29022C29.0347 1.71729 28.6804 1.31014 27.821 1.28753C26.6751 1.25737 25.2956 1.44586 24.4211 2.25249C24.3759 2.2751 24.3306 2.29769 24.2929 2.32031C23.7426 2.62939 23.5918 3.23245 23.6898 3.80538C23.9838 5.56941 25.0392 7.47675 25.8233 9.06738C26.7128 10.8766 27.4667 12.7537 28.2205 14.6233C28.4542 15.1962 28.6804 15.7691 28.9065 16.342C27.346 14.0202 25.7252 11.7436 24.0215 9.52723C23.2224 8.4869 22.4686 7.49931 21.6544 6.56453ZM40.4406 50.1224C40.4632 50.1676 40.4782 50.2054 40.5008 50.2506C40.4556 50.2581 40.4179 50.2581 40.3727 50.2656C40.3953 50.2128 40.4179 50.1676 40.4406 50.1224ZM44.5792 40.8198C44.5566 40.8198 44.5415 40.8123 44.5189 40.8123C44.4887 40.7671 44.4586 40.7142 44.4284 40.669C44.4812 40.7218 44.5265 40.7671 44.5792 40.8198ZM43.7425 47.989C43.7349 48.0192 43.7274 48.0569 43.7198 48.087C43.7198 48.0343 43.7123 47.989 43.7123 47.9362C43.7198 47.9513 43.7274 47.9664 43.7425 47.989ZM53.5878 35.98C53.5652 35.98 53.5501 35.9876 53.5275 35.9876C53.4446 35.965 53.3616 35.9424 53.2787 35.9198C53.2184 35.8745 53.1506 35.8293 53.0903 35.784C53.2486 35.8519 53.422 35.9197 53.5878 35.98ZM49.7959 34.5176C49.7205 34.5101 49.6376 34.5025 49.5547 34.495C49.3059 34.3744 49.0647 34.2613 48.8159 34.1407C49.1401 34.2613 49.4717 34.3895 49.7959 34.5176ZM54.6583 15.9124C54.6658 15.9727 54.6734 16.033 54.6734 16.0933C54.6131 16.0631 54.5452 16.0481 54.4698 16.033C54.5377 15.9953 54.598 15.9576 54.6583 15.9124ZM39.1741 7.99687C39.1741 8.01195 39.1665 8.02707 39.159 8.04215C39.159 8.02707 39.1665 8.01195 39.1741 7.99687ZM36.2717 51.6904C36.332 51.713 36.3999 51.7206 36.4677 51.7281C36.3999 51.7432 36.3245 51.7582 36.2566 51.7733C36.2566 51.7432 36.2642 51.7206 36.2717 51.6904Z" fill="#FFC64F"/>
</svg>
