<svg width="105" height="62" viewBox="0 0 105 62" fill="none" xmlns="http://www.w3.org/2000/svg">
<g clip-path="url(#clip0)">
<path d="M1.08545 34.2019L25.8709 35.1781V39.2547L6.32859 37.7045L6.44615 44.366L10.6509 43.9053L10.5372 47.1814H6.44615L6.61857 62L2.58237 61.137L1.08545 34.2019Z" fill="white"/>
<path d="M17.2186 57.5993V54.3115L28.7864 53.8859L28.4533 42.4136L12.6338 43.4172L12.9316 61.3323H30.4636L31.3492 57.2635L17.2186 57.5993ZM17.0501 46.1817H24.9305L25.2087 49.696H17.0501V46.1817Z" fill="white"/>
<path d="M46.5807 44.5496L46.1497 41.0314L33.32 42.0193L32.9478 53.7531L43.916 52.8863L44.1041 57.4548H35.2441L34.3741 61.0394H48.9985L47.2625 48.6262L37.0427 49.2978L37.2269 44.6745L46.5807 44.5496Z" fill="white"/>
<path d="M28.7744 39.9068L28.9899 35.1078L62.1456 34.7173L62.6315 37.642L54.1398 37.5874L55.817 61.0394H53.3286L49.9743 37.6576L28.7744 39.9068Z" fill="white"/>
<path d="M14.4634 3.15503L22.6847 3.41665V25.0842L35.7455 21.5075L36.11 30.8984H16.0269L14.4634 3.15503Z" fill="white"/>
<path d="M43.5475 10.6718L24.8203 9.89081L25.8196 21.6051L30.6277 20.8007L30.1105 18.0205L38.8686 17.306L38.9196 30.5119H48.1754L43.5475 10.6718ZM29.6598 15.2482L28.8996 12.5851L38.0105 13.3426L38.5199 15.2482H29.6598Z" fill="white"/>
<path d="M31.3022 8.09067L32.4191 3.15504L67.1069 1.71808L67.5536 6.0719L51.6047 7.73143L56.4717 31.1249L50.5702 31.0976L46.9572 8.21562L31.3022 8.09067Z" fill="white"/>
<path d="M72.3227 31.7068L69.2427 1.93286L77.4052 3.37763L82.7698 23.4365L80.9281 3.33858L86.8099 2.97934L87.1704 30.2191L79.0471 29.8403L75.5634 15.1037L76.3668 30.8673L72.3227 31.7068Z" fill="white"/>
<path d="M103.291 0L88.9531 3.0262L90.0112 29.7466L105.02 27.9269L103.291 0ZM94.7645 23.8191L93.389 7.98136L99.9684 8.2586V21.5114L94.7645 23.8191Z" fill="white"/>
<path d="M13.3508 18.907L12.3006 2.20233L0 3.1551L1.66542 30.4573H7.5669L5.87796 20.0198L13.3508 18.907ZM4.42023 8.62959H8.20564L8.71114 14.9748L5.30192 14.8928L4.42023 8.62959Z" fill="white"/>
<path d="M67.2714 8.80139L55.5508 10.9685L58.7053 30.2737L61.9852 30.2464L60.3472 21.3787L64.7243 21.7926L65.2416 32.148H69.0113L67.2714 8.80139ZM59.9828 18.2978L59.4459 13.4832L63.7172 12.6593L64.5206 18.5985L59.9828 18.2978Z" fill="white"/>
<path d="M26.2549 1.9563L30.3852 3.01059L28.9078 7.87203L24.856 7.91498L26.2549 1.9563Z" fill="white"/>
<path d="M71.4839 42.8041V38.4464H73.0788V39.079H72.1422V40.1333H72.5341C72.9886 40.1333 73.212 40.4027 73.212 40.9377V42.0427C73.2281 42.2482 73.1713 42.4527 73.0513 42.6206C72.9832 42.6861 72.9018 42.7363 72.8126 42.768C72.7234 42.7996 72.6284 42.8119 72.5341 42.8041H71.4839ZM72.1422 42.1716H72.3107C72.3447 42.1764 72.3793 42.172 72.411 42.159C72.4427 42.1459 72.4703 42.1247 72.491 42.0974C72.5264 42.0287 72.5427 41.9519 72.538 41.8748V41.0938C72.5439 41.0121 72.5291 40.9302 72.4949 40.8557C72.4744 40.827 72.4463 40.8046 72.4138 40.7908C72.3813 40.777 72.3457 40.7724 72.3107 40.7776H72.1422V42.1716Z" fill="white"/>
<path d="M73.5335 42.0427V40.4223C73.5175 40.2028 73.5877 39.9858 73.7294 39.817C73.801 39.7445 73.8874 39.6882 73.9827 39.6518C74.078 39.6154 74.1801 39.5999 74.282 39.6062H74.3956C74.4971 39.6001 74.5988 39.6154 74.694 39.6511C74.7892 39.6867 74.8757 39.7419 74.9481 39.8131C75.0179 39.8931 75.0711 39.986 75.1047 40.0865C75.1384 40.187 75.1517 40.2932 75.1441 40.3988V42.0427C75.1488 42.2518 75.0778 42.4555 74.9442 42.6167C74.8775 42.6963 74.7934 42.7596 74.6982 42.8016C74.6031 42.8435 74.4996 42.8631 74.3956 42.8588H74.282C74.176 42.8672 74.0696 42.8503 73.9714 42.8095C73.8733 42.7688 73.7863 42.7054 73.7177 42.6246C73.5909 42.4575 73.5259 42.252 73.5335 42.0427ZM74.1644 40.4262V42.0154C74.1644 42.1794 74.2232 42.2614 74.3407 42.2614C74.4544 42.2614 74.5132 42.1794 74.5132 42.0154V40.4262C74.5132 40.2661 74.4544 40.188 74.3407 40.188C74.2271 40.188 74.1644 40.2661 74.1644 40.4262Z" fill="white"/>
<path d="M75.6297 41.9451C75.6493 41.7381 75.6611 40.9728 75.6611 39.653H77.1502V42.8041H76.5232V40.2504H76.2567C76.2567 41.211 76.2567 41.8513 76.2019 42.1715C76.2023 42.3502 76.1476 42.5247 76.0451 42.6713C75.987 42.7217 75.919 42.7595 75.8455 42.7824C75.772 42.8052 75.6945 42.8126 75.618 42.8041H75.3672V42.2067H75.4377C75.4631 42.2091 75.4887 42.205 75.512 42.1947C75.5353 42.1845 75.5556 42.1684 75.571 42.1481C75.6059 42.0858 75.6261 42.0163 75.6297 41.9451Z" fill="white"/>
<path d="M77.5068 42.8041V39.653H78.1299V40.7072H78.3729C78.5743 40.684 78.7775 40.7339 78.945 40.8478C79.0565 40.9983 79.1069 41.1852 79.086 41.3711V42.1208C79.1061 42.3103 79.0559 42.5005 78.945 42.6557C78.7796 42.7748 78.5755 42.8277 78.3729 42.8041H77.5068ZM78.1299 42.2653H78.2788C78.3038 42.2679 78.3291 42.2648 78.3528 42.2562C78.3764 42.2476 78.3977 42.2338 78.4151 42.2157C78.4325 42.1976 78.4456 42.1757 78.4532 42.1518C78.4608 42.1279 78.4628 42.1026 78.4591 42.0778V41.4218C78.4617 41.3973 78.4592 41.3725 78.4518 41.349C78.4444 41.3255 78.4322 41.3038 78.416 41.2852C78.377 41.2551 78.3279 41.2411 78.2788 41.2461H78.1299V42.2653Z" fill="white"/>
<path d="M79.3916 42.8041V39.653H80.0186V42.2067H80.3321V39.653H80.9591V42.2067H81.2608V39.653H81.8878V42.8041H79.3916Z" fill="white"/>
<path d="M82.2291 42.0427V40.4222C82.214 40.2036 82.2826 39.9873 82.4211 39.817C82.4932 39.7451 82.5796 39.6892 82.6748 39.6529C82.77 39.6165 82.8718 39.6006 82.9736 39.6061H83.0912C83.1927 39.6001 83.2944 39.6154 83.3896 39.6511C83.4848 39.6867 83.5714 39.7419 83.6437 39.8131C83.7828 39.9757 83.853 40.1857 83.8397 40.3988V42.0427C83.8444 42.2518 83.7734 42.4555 83.6398 42.6167C83.573 42.6961 83.4888 42.7592 83.3937 42.8011C83.2986 42.8431 83.1951 42.8628 83.0912 42.8588H82.9736C82.8683 42.8669 82.7625 42.8498 82.6651 42.8091C82.5677 42.7683 82.4813 42.7051 82.4133 42.6245C82.2847 42.4584 82.2195 42.2523 82.2291 42.0427ZM82.86 40.4261V42.0154C82.86 42.1794 82.9149 42.2614 83.0324 42.2614C83.15 42.2614 83.2088 42.1794 83.2088 42.0154V40.4261C83.2088 40.2661 83.15 40.188 83.0324 40.188C82.9149 40.188 82.86 40.2661 82.86 40.4261Z" fill="white"/>
<path d="M85.8417 42.8041H85.2461V41.0548L84.819 42.8041H84.1646V39.653H84.7641V41.5116L85.1873 39.653H85.8417V42.8041ZM85.0345 39.4968C84.9555 39.5012 84.8764 39.4901 84.8017 39.464C84.7271 39.4378 84.6584 39.3972 84.5995 39.3445C84.543 39.2841 84.4999 39.2126 84.4729 39.1346C84.4459 39.0566 84.4356 38.9738 84.4428 38.8915V38.8681H84.8973V38.8915C84.8973 39.0243 84.9444 39.0907 85.0384 39.0907C85.1325 39.0907 85.1756 39.0243 85.1756 38.8915V38.8681H85.6144V38.8915C85.6209 38.9737 85.6103 39.0563 85.5833 39.1342C85.5563 39.2122 85.5136 39.2837 85.4577 39.3445C85.4012 39.3971 85.3345 39.4377 85.2618 39.4638C85.189 39.49 85.1117 39.5012 85.0345 39.4968Z" fill="white"/>
<path d="M88.6202 42.8588H88.4713V43.9053H87.8482V42.8588H87.7033C87.5938 42.8678 87.4837 42.8513 87.3817 42.8106C87.2797 42.77 87.1885 42.7063 87.1155 42.6245C86.9829 42.4601 86.9146 42.2534 86.9234 42.0427V40.4222C86.91 40.2018 86.9831 39.9847 87.1272 39.817C87.2041 39.745 87.2947 39.6893 87.3937 39.653C87.4926 39.6168 87.5979 39.6008 87.7033 39.6061H87.8482V38.4347H88.4713V39.6061H88.6202C88.7246 39.6009 88.829 39.6165 88.9273 39.652C89.0255 39.6875 89.1157 39.7423 89.1924 39.8131C89.2646 39.8917 89.32 39.9842 89.3551 40.0849C89.3901 40.1857 89.4041 40.2925 89.3961 40.3988V42.0427C89.4001 42.253 89.3261 42.4573 89.1884 42.6167C89.118 42.6969 89.0304 42.7604 88.932 42.8023C88.8336 42.8442 88.7271 42.8635 88.6202 42.8588ZM87.7581 42.2614H87.8482V40.1879H87.7777C87.6445 40.1879 87.5739 40.266 87.5739 40.4261V42.0154C87.5543 42.1716 87.6249 42.2614 87.7777 42.2614H87.7581ZM88.5614 40.1879H88.4713V42.2614H88.5614C88.6986 42.2614 88.7652 42.1794 88.7652 42.0154V40.4261C88.7652 40.266 88.6986 40.1879 88.5614 40.1879Z" fill="white"/>
<path d="M90.4422 39.6139H90.5598C91.0261 39.6139 91.2612 39.8756 91.2612 40.3949V41.3008H90.3325V42.0271C90.3325 42.1833 90.3874 42.2614 90.501 42.2614C90.6147 42.2614 90.6578 42.1872 90.6578 42.0349V41.5117H91.2612V42.0622C91.2612 42.5933 91.0183 42.8432 90.5285 42.8432H90.4187C90.3244 42.8486 90.2301 42.8336 90.1421 42.7992C90.0542 42.7648 89.9748 42.7119 89.9093 42.644C89.7771 42.477 89.7127 42.2665 89.7291 42.0544V40.348C89.7191 40.1505 89.7818 39.9561 89.9054 39.8014C89.975 39.7319 90.0594 39.6789 90.1523 39.6465C90.2453 39.614 90.3444 39.6029 90.4422 39.6139ZM90.3325 40.3949V40.7854H90.6774V40.3949C90.6774 40.227 90.6186 40.145 90.5049 40.145C90.4628 40.1423 90.4211 40.1548 90.3874 40.1801C90.3632 40.2016 90.3466 40.2304 90.3404 40.2621C90.3335 40.3047 90.3309 40.3479 90.3325 40.391V40.3949Z" fill="white"/>
<path d="M92.5271 41.3906H93.1306V42.0974C93.1337 42.2885 93.0731 42.4753 92.9581 42.6284C92.8929 42.7057 92.8103 42.7665 92.717 42.8058C92.6237 42.8452 92.5224 42.862 92.4213 42.8549H92.3076C92.2072 42.8614 92.1065 42.8455 92.0129 42.8083C91.9194 42.7712 91.8353 42.7137 91.7669 42.6401C91.6377 42.488 91.5719 42.2924 91.5827 42.0935V40.3754C91.5827 39.86 91.8296 39.5944 92.3272 39.5944H92.4409C92.5345 39.5815 92.6299 39.5903 92.7195 39.6202C92.8091 39.6502 92.8905 39.7004 92.9573 39.767C93.0242 39.8336 93.0746 39.9148 93.1046 40.0041C93.1347 40.0934 93.1436 40.1884 93.1306 40.2817V40.844H92.5271V40.4144C92.5315 40.3456 92.5221 40.2766 92.4997 40.2114C92.4835 40.1931 92.4636 40.1785 92.4413 40.1684C92.419 40.1584 92.3948 40.1532 92.3703 40.1532C92.3459 40.1532 92.3217 40.1584 92.2994 40.1684C92.2771 40.1785 92.2572 40.1931 92.241 40.2114C92.2189 40.2753 92.2095 40.343 92.2136 40.4105V42.0193C92.2136 42.1794 92.2645 42.2614 92.3625 42.2614C92.4605 42.2614 92.5271 42.1833 92.5271 42.0271V41.3906Z" fill="white"/>
<path d="M93.808 42.8041V40.2504H93.3691V39.653H94.87V40.2504H94.4389V42.8041H93.808Z" fill="white"/>
<path d="M96.8295 42.8041H96.23V41.0548L95.8068 42.8041H95.1523V39.653H95.748V41.5116L96.1751 39.653H96.8295V42.8041Z" fill="white"/>
<path d="M98.0717 42.8041H97.1821V39.653H98.0129C98.2187 39.6323 98.426 39.673 98.6085 39.7701C98.6663 39.8341 98.7096 39.9098 98.7353 39.9921C98.761 40.0743 98.7685 40.1611 98.7574 40.2465V40.6096C98.766 40.7319 98.7388 40.854 98.6791 40.9611C98.6242 41.0382 98.5459 41.0956 98.4557 41.1251C98.5524 41.1522 98.6385 41.208 98.7026 41.2852C98.7688 41.4041 98.7975 41.5402 98.7849 41.6756V42.1442C98.8038 42.3342 98.7522 42.5245 98.6399 42.6792C98.4736 42.7919 98.2701 42.8367 98.0717 42.8041ZM97.8091 40.8791H97.9659C98.0677 40.8791 98.1187 40.8088 98.1187 40.6682V40.3675C98.1187 40.2504 98.0677 40.1918 97.9659 40.1918H97.7974L97.8091 40.8791ZM97.8091 42.2653H97.9659C98.0873 42.2653 98.1461 42.195 98.1461 42.0505V41.621C98.1461 41.4843 98.0873 41.4179 97.9659 41.4179H97.7974L97.8091 42.2653Z" fill="white"/>
<path d="M99.1065 42.3316V41.5936C99.1004 41.4606 99.1218 41.3277 99.1692 41.2031C99.2212 41.0997 99.3031 41.014 99.4043 40.9571L99.5806 40.8556L99.8079 40.7424L99.949 40.676C99.973 40.6616 99.9942 40.6431 100.012 40.6213C100.018 40.5944 100.018 40.5663 100.012 40.5393V40.3402C100.017 40.2844 100.005 40.2283 99.9764 40.1801C99.9616 40.1641 99.9433 40.1519 99.9228 40.1445C99.9024 40.137 99.8805 40.1345 99.8589 40.1371C99.8366 40.1342 99.814 40.1365 99.7929 40.144C99.7718 40.1514 99.7527 40.1638 99.7374 40.1801C99.709 40.227 99.6966 40.2818 99.7021 40.3363V40.6682H99.1417V40.2191C99.1417 39.8208 99.3612 39.6217 99.8001 39.6217H99.9176C100.018 39.6091 100.119 39.6175 100.216 39.6465C100.312 39.6754 100.402 39.7241 100.478 39.7896C100.583 39.9168 100.636 40.0784 100.627 40.2426V42.1169C100.618 42.1422 100.618 42.1696 100.627 42.1949C100.627 42.1949 100.666 42.2184 100.709 42.2184H100.819V42.7963H100.239C100.102 42.7963 100.035 42.6791 100.035 42.4409C99.9951 42.5476 99.9257 42.6407 99.8349 42.7098C99.7441 42.7789 99.6356 42.821 99.5218 42.8314H99.5023C99.446 42.8321 99.3904 42.819 99.3405 42.7931C99.2906 42.7672 99.2479 42.7294 99.2162 42.683C99.14 42.5821 99.1012 42.4579 99.1065 42.3316ZM100.023 42.027V41.2109C99.9426 41.2548 99.8675 41.3086 99.8001 41.371C99.7709 41.4053 99.7489 41.4451 99.7354 41.4881C99.722 41.531 99.7173 41.5762 99.7217 41.6209V42.0544C99.7217 42.191 99.7687 42.2613 99.8667 42.2613C99.9647 42.2613 100.023 42.1715 100.023 42.027Z" fill="white"/>
<path d="M101.215 41.9451C101.215 41.7381 101.246 40.9728 101.246 39.653H102.735V42.8041H102.108V40.2504H101.842C101.842 41.211 101.822 41.8513 101.787 42.1715C101.787 42.3502 101.733 42.5247 101.63 42.6713C101.572 42.7217 101.504 42.7595 101.43 42.7824C101.357 42.8052 101.279 42.8126 101.203 42.8041H100.952V42.2067H101.023C101.048 42.2091 101.074 42.205 101.097 42.1947C101.12 42.1845 101.141 42.1684 101.156 42.1481C101.191 42.0858 101.211 42.0163 101.215 41.9451Z" fill="white"/>
<path d="M103.091 42.8041V39.653H103.714V40.7072H103.957C104.158 40.6838 104.36 40.7338 104.526 40.8478C104.637 40.9983 104.687 41.1852 104.667 41.3711V42.1208C104.687 42.3103 104.636 42.5005 104.526 42.6557C104.362 42.7749 104.159 42.8279 103.957 42.8041H103.091ZM103.714 42.2652H103.863C103.888 42.2679 103.914 42.2648 103.937 42.2562C103.961 42.2476 103.982 42.2338 104 42.2157C104.017 42.1976 104.03 42.1757 104.038 42.1518C104.045 42.1279 104.047 42.1026 104.044 42.0778V41.4218C104.046 41.3973 104.044 41.3725 104.036 41.349C104.029 41.3255 104.017 41.3038 104 41.2852C103.981 41.2699 103.959 41.2586 103.936 41.2519C103.912 41.2452 103.888 41.2432 103.863 41.2461H103.714V42.2652Z" fill="white"/>
<path d="M73.059 47.4274V49.0713C73.0638 49.2803 72.9928 49.4841 72.8592 49.6453C72.7923 49.7246 72.7081 49.7877 72.6131 49.8297C72.518 49.8716 72.4145 49.8914 72.3106 49.8874H72.193C72.0877 49.8954 71.9819 49.8783 71.8845 49.8376C71.787 49.7969 71.7007 49.7336 71.6327 49.6531C71.5041 49.487 71.4389 49.2808 71.4485 49.0713V46.6347C71.4271 46.3564 71.4885 46.078 71.6248 45.8342C71.7106 45.7409 71.8178 45.6698 71.9373 45.6269C72.0567 45.5841 72.1848 45.5708 72.3106 45.5882H72.3655C72.4011 45.5919 72.4369 45.5837 72.4673 45.5648C72.4673 45.5648 72.4908 45.5218 72.4908 45.475H73.0943C73.113 45.6645 73.0734 45.8552 72.9807 46.0216C72.9165 46.0792 72.8404 46.122 72.7578 46.147C72.6752 46.172 72.588 46.1785 72.5026 46.1661H72.4517C72.3276 46.1507 72.2024 46.1844 72.1029 46.2598C72.0317 46.3769 72.0026 46.5146 72.0206 46.6503V47.0408C72.0788 46.9325 72.1628 46.8402 72.2654 46.7721C72.3679 46.704 72.4857 46.6621 72.6084 46.6503H72.6398C72.7075 46.646 72.7749 46.6623 72.833 46.6972C72.8912 46.7321 72.9372 46.7839 72.965 46.8456C73.0363 47.0309 73.0684 47.229 73.059 47.4274ZM72.2518 49.2899C72.3694 49.2899 72.4281 49.2079 72.4281 49.0439V47.4547C72.4281 47.2946 72.3694 47.2165 72.2518 47.2165C72.1343 47.2165 72.0794 47.2946 72.0794 47.4547V49.0439C72.0794 49.2001 72.1382 49.2899 72.2518 49.2899Z" fill="white"/>
<path d="M73.3806 49.3602V48.6222C73.3755 48.4889 73.3982 48.3559 73.4472 48.2318C73.4966 48.1277 73.5774 48.0417 73.6784 47.9858L73.8547 47.8842C73.9292 47.8452 74.0036 47.8061 74.082 47.771L74.2231 47.7046C74.2471 47.6903 74.2683 47.6717 74.2858 47.6499C74.2923 47.623 74.2923 47.5949 74.2858 47.5679V47.3688C74.2915 47.313 74.2792 47.2569 74.2505 47.2087C74.2357 47.1928 74.2174 47.1805 74.1969 47.1731C74.1765 47.1656 74.1546 47.1631 74.133 47.1658C74.1101 47.1628 74.0869 47.1651 74.0652 47.1726C74.0434 47.18 74.0237 47.1924 74.0076 47.2087C73.9792 47.2556 73.9668 47.3104 73.9723 47.3649V47.6968H73.4119V47.2478C73.4119 46.8573 73.6314 46.6503 74.0742 46.6503H74.1878C74.2884 46.6377 74.3906 46.646 74.4877 46.675C74.5849 46.7039 74.6749 46.7527 74.7521 46.8182C74.8539 46.9467 74.9054 47.1077 74.8971 47.2712V49.1455C74.8884 49.1708 74.8884 49.1982 74.8971 49.2236C74.8971 49.2236 74.9363 49.247 74.9794 49.247H75.0891V49.8249H74.4935C74.3602 49.8249 74.2897 49.7078 74.2897 49.4696C74.25 49.5764 74.1807 49.6699 74.0899 49.739C73.999 49.8081 73.8903 49.8501 73.7764 49.86C73.7201 49.8608 73.6645 49.8476 73.6146 49.8217C73.5647 49.7958 73.522 49.758 73.4903 49.7117C73.4141 49.6107 73.3753 49.4865 73.3806 49.3602ZM74.2975 49.0557V48.2396C74.2171 48.2823 74.1432 48.3362 74.0781 48.3997C74.0484 48.4338 74.0258 48.4734 74.0117 48.5164C73.9976 48.5593 73.9922 48.6045 73.9958 48.6496V49.083C73.9958 49.2197 74.0428 49.2899 74.1408 49.2899C74.2388 49.2899 74.2975 49.2001 74.2975 49.0557Z" fill="white"/>
<path d="M75.959 49.8327H75.332V46.6816H75.959V47.9662H76.3195V46.6816H76.9465V49.8327H76.3195V48.5637H75.959V49.8327Z" fill="white"/>
<path d="M77.2834 49.3602V48.6222C77.2783 48.4889 77.301 48.3559 77.35 48.2318C77.3994 48.1277 77.4802 48.0417 77.5812 47.9858L77.7575 47.8842L77.9848 47.771L78.1259 47.7046C78.1499 47.6903 78.1711 47.6717 78.1886 47.6499C78.1951 47.623 78.1951 47.5949 78.1886 47.5679V47.3688C78.1943 47.313 78.182 47.2569 78.1533 47.2087C78.1385 47.1928 78.1202 47.1805 78.0997 47.1731C78.0793 47.1656 78.0574 47.1631 78.0357 47.1658C78.0129 47.1628 77.9897 47.1651 77.968 47.1726C77.9462 47.18 77.9265 47.1924 77.9104 47.2087C77.882 47.2556 77.8696 47.3104 77.8751 47.3649V47.6968H77.3147V47.2478C77.3147 46.8573 77.5342 46.6503 77.977 46.6503H78.0906C78.1912 46.6377 78.2934 46.646 78.3905 46.675C78.4877 46.7039 78.5777 46.7527 78.6549 46.8182C78.7567 46.9467 78.8082 47.1077 78.7999 47.2712V49.1455C78.7912 49.1708 78.7912 49.1982 78.7999 49.2236C78.7999 49.2236 78.8391 49.247 78.8822 49.247H78.9919V49.8249H78.3963C78.263 49.8249 78.1925 49.7078 78.1925 49.4696C78.1528 49.5764 78.0835 49.6699 77.9927 49.739C77.9018 49.8081 77.7931 49.8501 77.6792 49.86H77.6596C77.6033 49.8608 77.5477 49.8476 77.4978 49.8217C77.4479 49.7958 77.4052 49.758 77.3735 49.7117C77.3042 49.6082 77.2724 49.4842 77.2834 49.3602ZM78.2003 49.0557V48.2396C78.1199 48.2823 78.046 48.3362 77.9809 48.3997C77.9512 48.4338 77.9286 48.4734 77.9145 48.5164C77.9004 48.5593 77.895 48.6045 77.8986 48.6496V49.083C77.8986 49.2197 77.9456 49.2899 78.0436 49.2899C78.1416 49.2899 78.2003 49.2001 78.2003 49.0557Z" fill="white"/>
<path d="M79.8618 49.8327H79.2349V46.6816H79.8618V47.9662H80.2224V46.6816H80.8493V49.8327H80.2224V48.5637H79.8618V49.8327Z" fill="white"/>
<path d="M81.198 49.0713V47.4508C81.1841 47.2316 81.2541 47.0153 81.394 46.8456C81.4656 46.7731 81.5519 46.7167 81.6473 46.6804C81.7426 46.644 81.8446 46.6284 81.9465 46.6347H82.0641C82.1655 46.6294 82.267 46.645 82.362 46.6806C82.4571 46.7163 82.5438 46.7711 82.6166 46.8417C82.7556 47.0042 82.8259 47.2142 82.8125 47.4274V49.0713C82.8158 49.2808 82.7435 49.4845 82.6088 49.6453C82.5427 49.7246 82.4592 49.7877 82.3647 49.8297C82.2703 49.8716 82.1674 49.8914 82.0641 49.8874H81.9465C81.8405 49.8958 81.7341 49.8789 81.636 49.8381C81.5379 49.7974 81.4509 49.734 81.3822 49.6531C81.2555 49.4861 81.1904 49.2806 81.198 49.0713ZM81.8289 47.4547V49.044C81.8289 49.208 81.8877 49.29 82.0053 49.29C82.1228 49.29 82.1816 49.208 82.1816 49.044V47.4547C82.1816 47.2946 82.1228 47.2165 82.0053 47.2165C81.8877 47.2165 81.8289 47.2946 81.8289 47.4547Z" fill="white"/>
<path d="M84.0277 49.8327H83.1382V46.6816H83.9689C84.1735 46.6607 84.3796 46.7015 84.5607 46.7987C84.6194 46.8622 84.6632 46.9378 84.689 47.0202C84.7147 47.1026 84.7218 47.1897 84.7096 47.2751V47.6383C84.7191 47.7601 84.6933 47.8821 84.6351 47.9897C84.5802 48.0668 84.5019 48.1243 84.4117 48.1537C84.5085 48.1808 84.5946 48.2366 84.6586 48.3138C84.7249 48.4327 84.7536 48.5688 84.7409 48.7043V49.1728C84.7598 49.3628 84.7083 49.5531 84.5959 49.7078C84.4288 49.8187 84.2261 49.8633 84.0277 49.8327ZM83.7652 47.9077H83.9337C84.0356 47.9077 84.0865 47.8374 84.0865 47.6968V47.3962C84.0865 47.279 84.0356 47.2205 83.9337 47.2205H83.7652V47.9077ZM83.7652 49.2939H83.9337C84.0551 49.2939 84.1139 49.2236 84.1139 49.0791V48.6496C84.1139 48.5129 84.0551 48.4465 83.9337 48.4465H83.7652V49.2939Z" fill="white"/>
<path d="M87.4955 49.8327H86.8999V48.0834L86.4728 49.8327H85.8184V46.6816H86.414V48.5402L86.8411 46.6816H87.4955V49.8327Z" fill="white"/>
<path d="M89.5176 49.8327L89.1806 47.9662V49.8327H88.5967V46.6816H89.3804L89.7017 48.4465L90.0231 46.6816H90.7715V49.8327H90.1445V47.9584L89.8075 49.8327H89.5176Z" fill="white"/>
<path d="M91.5118 49.739L91.0181 46.6816H91.6294L91.8723 48.6105L92.1075 46.6816H92.7031L92.0879 50.4653C92.0734 50.5929 92.0277 50.7149 91.9546 50.8206C91.924 50.8581 91.885 50.8878 91.8408 50.9075C91.7965 50.9271 91.7483 50.9362 91.6999 50.9339H91.1121V50.3364H91.3786C91.3968 50.3388 91.4153 50.3372 91.4329 50.3318C91.4505 50.3264 91.4667 50.3173 91.4805 50.3052C91.5011 50.2663 91.5144 50.2239 91.5197 50.1803L91.5392 50.0436C91.5454 49.9413 91.5361 49.8386 91.5118 49.739Z" fill="white"/>
<path d="M94.4394 48.6808V49.0713C94.4394 49.6062 94.2003 49.8756 93.7144 49.8756H93.5812C93.4809 49.8839 93.3802 49.8679 93.2874 49.8292C93.1947 49.7904 93.1126 49.73 93.0482 49.6531C92.9314 49.5025 92.8704 49.3162 92.8758 49.1259V48.5988H93.4754V49.0556C93.4754 49.2118 93.5342 49.2899 93.6517 49.2899C93.7693 49.2899 93.8241 49.2157 93.8163 49.0674V48.6456C93.8163 48.5051 93.7536 48.4348 93.6321 48.4348H93.3343V47.8725H93.6556C93.6782 47.875 93.701 47.872 93.7221 47.8639C93.7433 47.8557 93.7621 47.8426 93.7771 47.8256C93.8038 47.7587 93.8145 47.6865 93.8085 47.6148V47.4547C93.8119 47.3856 93.8012 47.3165 93.7771 47.2516C93.7642 47.2317 93.7461 47.2156 93.7246 47.2053C93.7032 47.195 93.6793 47.1907 93.6556 47.1931C93.5537 47.1931 93.4989 47.279 93.4989 47.4547V47.7085H92.8993V47.4078C92.8834 47.203 92.9387 46.9989 93.0561 46.8299C93.1243 46.7593 93.2077 46.7051 93.3 46.6713C93.3923 46.6375 93.4911 46.6249 93.589 46.6347H93.6556C93.7613 46.623 93.8683 46.6336 93.9696 46.6659C94.0709 46.6982 94.1642 46.7514 94.2434 46.8221C94.3699 46.9901 94.4298 47.1986 94.4119 47.4078V47.6382C94.4205 47.7604 94.3933 47.8825 94.3336 47.9896C94.2803 48.0667 94.2032 48.1242 94.1141 48.1536C94.2092 48.1819 94.2938 48.2376 94.3571 48.3137C94.4188 48.4259 94.4473 48.5531 94.4394 48.6808Z" fill="white"/>
<path d="M94.7959 49.8327V46.6816H95.419V47.7359H95.658C95.8595 47.7126 96.0626 47.7625 96.2301 47.8764C96.3417 48.0269 96.392 48.2138 96.3712 48.3997V49.1494C96.3912 49.3389 96.3411 49.5291 96.2301 49.6843C96.0648 49.8034 95.8606 49.8564 95.658 49.8327H94.7959ZM95.419 49.2939H95.5639C95.5893 49.2972 95.615 49.2946 95.6392 49.2863C95.6633 49.278 95.6852 49.2642 95.703 49.246C95.7209 49.2278 95.7343 49.2057 95.7421 49.1815C95.7499 49.1573 95.752 49.1316 95.7481 49.1064V48.4504C95.7507 48.4259 95.7482 48.4012 95.7408 48.3776C95.7334 48.3541 95.7212 48.3324 95.705 48.3138C95.6648 48.2831 95.6143 48.2691 95.5639 48.2747H95.419V49.2939ZM97.1823 46.6816V49.8327H96.5593V46.6816H97.1823Z" fill="white"/>
<path d="M98.6559 49.8327L98.1543 48.427V49.8327H97.5273V46.6816H98.1543V47.8764L98.6402 46.6816H99.2633L98.6755 48.0834L99.3064 49.8327H98.6559Z" fill="white"/>
<path d="M101.187 49.8327H100.592V48.0834L100.165 49.8327H99.5103V46.6816H100.106V48.5402L100.533 46.6816H101.187V49.8327Z" fill="white"/>
<path d="M72.3539 56.8613H71.4644V53.7102H72.2951C72.4997 53.6893 72.7058 53.7301 72.8868 53.8273C72.9446 53.8913 72.9879 53.967 73.0136 54.0493C73.0393 54.1315 73.0468 54.2183 73.0357 54.3037V54.6668C73.0453 54.7887 73.0194 54.9107 72.9613 55.0183C72.9064 55.0954 72.8281 55.1528 72.7379 55.1823C72.8346 55.2094 72.9208 55.2652 72.9848 55.3424C73.051 55.4613 73.0797 55.5974 73.0671 55.7328V56.2014C73.086 56.3914 73.0344 56.5817 72.9221 56.7364C72.755 56.8473 72.5523 56.8919 72.3539 56.8613ZM72.0913 54.9363H72.2598C72.3617 54.9363 72.4127 54.866 72.4127 54.7254V54.4247C72.4127 54.3076 72.3617 54.249 72.2598 54.249H72.1031L72.0913 54.9363ZM72.0913 56.3225H72.2598C72.3813 56.3225 72.4401 56.2522 72.4401 56.1077V55.6782C72.4401 55.5415 72.3813 55.4751 72.2598 55.4751H72.1031L72.0913 56.3225Z" fill="white"/>
<path d="M75.818 57.4783V56.8613H74.6738V57.4783H74.0625V56.2014H74.2075C74.2888 56.0268 74.3442 55.8413 74.3721 55.6508C74.4322 55.2604 74.4609 54.2113 74.4583 52.5036H76.1198V56.2014H76.4137V57.4783H75.818ZM74.9991 55.6665C74.9778 55.8493 74.9344 56.029 74.8697 56.2014H75.4654V53.1362H75.0735C75.0957 53.9803 75.0708 54.8251 74.9991 55.6665Z" fill="white"/>
<path d="M79.1567 54.456V56.0999C79.1617 56.3096 79.0892 56.5139 78.9529 56.6739C78.8868 56.7532 78.8033 56.8163 78.7089 56.8582C78.6144 56.9002 78.5116 56.92 78.4082 56.916H78.2907C78.1847 56.924 78.0784 56.907 77.9803 56.8663C77.8823 56.8255 77.7952 56.7623 77.7264 56.6817C77.5996 56.5147 77.5346 56.3092 77.5422 56.0999V55.5923H77.3345V56.8613H76.7075V53.7102H77.3345V54.9948H77.5422V54.4794C77.5282 54.2602 77.5982 54.0439 77.7381 53.8742C77.8097 53.8017 77.8961 53.7453 77.9914 53.7089C78.0867 53.6726 78.1888 53.657 78.2907 53.6633H78.4082C78.5097 53.6572 78.6114 53.6725 78.7066 53.7082C78.8018 53.7439 78.8884 53.7991 78.9607 53.8702C79.0998 54.0328 79.17 54.2428 79.1567 54.456ZM78.1731 54.4833V56.0725C78.1731 56.2366 78.2319 56.3185 78.3494 56.3185C78.467 56.3185 78.5258 56.2366 78.5258 56.0725V54.4833C78.5258 54.3232 78.467 54.2451 78.3494 54.2451C78.2319 54.2451 78.1653 54.3232 78.1653 54.4833H78.1731Z" fill="white"/>
<path d="M79.4976 53.7101H80.1245V54.0499C80.1701 53.9517 80.2408 53.8671 80.3296 53.8048C80.4183 53.7424 80.5219 53.7044 80.63 53.6945C80.6968 53.6903 80.7635 53.7031 80.8239 53.7318C80.8842 53.7605 80.9362 53.8041 80.9749 53.8585C81.0649 53.9795 81.1143 54.1257 81.116 54.2763V56.2561C81.126 56.4209 81.0774 56.5841 80.9788 56.7168C80.9369 56.7674 80.8842 56.808 80.8245 56.8356C80.7649 56.8633 80.6998 56.8774 80.634 56.8769C80.5366 56.8661 80.4429 56.8338 80.3595 56.7825C80.2762 56.7312 80.2053 56.6621 80.152 56.5801V57.9546H79.525L79.4976 53.7101ZM80.1245 54.4911V56.1233C80.1205 56.1866 80.137 56.2496 80.1716 56.3029C80.1867 56.3217 80.2058 56.337 80.2274 56.3478C80.2491 56.3585 80.2728 56.3646 80.297 56.3654C80.4067 56.3654 80.4615 56.2873 80.4615 56.135V54.4911C80.4615 54.3388 80.4067 54.2607 80.297 54.2607C80.1872 54.2607 80.1245 54.3271 80.1245 54.4794V54.4911Z" fill="white"/>
<path d="M82.3777 55.4478H82.9811V56.1545C82.9843 56.3457 82.9237 56.5325 82.8087 56.6856C82.7435 56.7628 82.6609 56.8236 82.5676 56.863C82.4743 56.9023 82.3729 56.9191 82.2719 56.9121H82.1582C82.0577 56.9185 81.9571 56.9026 81.8635 56.8655C81.77 56.8283 81.6859 56.7709 81.6175 56.6973C81.4883 56.5451 81.4224 56.3496 81.4333 56.1506V54.4325C81.4333 53.9171 81.6802 53.6516 82.1817 53.6516H82.2915C82.3851 53.6386 82.4804 53.6474 82.5701 53.6774C82.6597 53.7073 82.7411 53.7576 82.8079 53.8242C82.8748 53.8908 82.9252 53.9719 82.9552 54.0612C82.9853 54.1505 82.9942 54.2455 82.9811 54.3388V54.9011H82.3777V54.4716C82.3821 54.4027 82.3727 54.3337 82.3502 54.2685C82.3341 54.2502 82.3142 54.2356 82.2919 54.2256C82.2696 54.2155 82.2454 54.2103 82.2209 54.2103C82.1965 54.2103 82.1723 54.2155 82.15 54.2256C82.1277 54.2356 82.1078 54.2502 82.0916 54.2685C82.0694 54.3325 82.0601 54.4001 82.0642 54.4677V56.0764C82.0642 56.2365 82.1151 56.3185 82.2131 56.3185C82.3111 56.3185 82.3777 56.2404 82.3777 56.0842V55.4478Z" fill="white"/>
<path d="M83.2908 56.0999V54.4794C83.2748 54.26 83.3451 54.0429 83.4868 53.8742C83.5583 53.8017 83.6447 53.7453 83.74 53.7089C83.8354 53.6726 83.9374 53.657 84.0393 53.6633H84.1529C84.2544 53.6572 84.3561 53.6725 84.4513 53.7082C84.5465 53.7439 84.6331 53.7991 84.7054 53.8702C84.7752 53.9502 84.8284 54.0431 84.8621 54.1436C84.8957 54.2441 84.909 54.3503 84.9014 54.456V56.0999C84.9061 56.3089 84.8351 56.5127 84.7015 56.6739C84.6349 56.7535 84.5507 56.8167 84.4556 56.8587C84.3604 56.9007 84.2569 56.9203 84.1529 56.916H84.0393C83.9333 56.9243 83.8269 56.9074 83.7288 56.8667C83.6306 56.826 83.5437 56.7625 83.475 56.6817C83.3464 56.5156 83.2812 56.3094 83.2908 56.0999ZM83.9217 54.4833V56.0726C83.9217 56.2366 83.9805 56.3185 84.0981 56.3185C84.2117 56.3185 84.2705 56.2366 84.2705 56.0726V54.4833C84.2705 54.3232 84.2117 54.2451 84.0981 54.2451C83.9844 54.2451 83.9217 54.3232 83.9217 54.4833Z" fill="white"/>
<path d="M66.6797 60.8793L66.1585 60.9653L65.7666 34.9126L66.6797 34.7916V60.8793Z" fill="white"/>
</g>
<defs>
<clipPath id="clip0">
<rect width="105" height="62" fill="white"/>
</clipPath>
</defs>
</svg>
